<mxfile host="app.diagrams.net" modified="2023-12-06T17:25:48.487Z" agent="Mozilla/5.0 (X11; Ubuntu; Linux x86_64; rv:121.0) Gecko/20100101 Firefox/121.0" etag="idTxph8rKRvdC6JhpuV9" version="22.1.7" type="device">
  <diagram name="Page-1" id="efa7a0a1-bf9b-a30e-e6df-94a7791c09e9">
    <mxGraphModel dx="1364" dy="790" grid="1" gridSize="10" guides="1" tooltips="1" connect="1" arrows="1" fold="1" page="1" pageScale="1" pageWidth="826" pageHeight="1169" background="none" math="0" shadow="0">
      <root>
        <mxCell id="0" />
        <mxCell id="1" parent="0" />
        <mxCell id="29" value="&lt;p style=&quot;margin: 0px; margin-top: 4px; text-align: center; text-decoration: underline;&quot;&gt;&lt;strong&gt;Produkt&lt;/strong&gt;&lt;/p&gt;&lt;hr&gt;&lt;p style=&quot;margin: 0px; margin-left: 8px;&quot;&gt;ID&lt;/p&gt;&lt;div&gt;&amp;nbsp; Cena&lt;/div&gt;&lt;div&gt;&amp;nbsp; Ilość&lt;/div&gt;&lt;div&gt;&amp;nbsp; &lt;br&gt;&lt;/div&gt;" style="verticalAlign=top;align=left;overflow=fill;fontSize=12;fontFamily=Helvetica;html=1;strokeColor=#003366;shadow=1;fillColor=#D4E1F5;fontColor=#003366" parent="1" vertex="1">
          <mxGeometry x="620" y="440" width="190" height="85" as="geometry" />
        </mxCell>
        <mxCell id="SMvZKlAJo7WMtJHq3p7y-116" value="&lt;p style=&quot;margin: 0px; margin-top: 4px; text-align: center; text-decoration: underline;&quot;&gt;&lt;strong&gt;Użytkownik&lt;br&gt;&lt;/strong&gt;&lt;/p&gt;&lt;hr&gt;&lt;p style=&quot;margin: 0px; margin-left: 8px;&quot;&gt;ID&lt;br&gt;&lt;/p&gt;&lt;p style=&quot;margin: 0px; margin-left: 8px;&quot;&gt;nick&lt;/p&gt;&lt;div&gt;&amp;nbsp; hasło - hash&lt;br&gt;&lt;/div&gt;&lt;div&gt;&amp;nbsp; hasło - sól&lt;br&gt;&lt;/div&gt;&lt;div&gt;&amp;nbsp; &lt;br&gt;&lt;/div&gt;" style="verticalAlign=top;align=left;overflow=fill;fontSize=12;fontFamily=Helvetica;html=1;strokeColor=#003366;shadow=1;fillColor=#D4E1F5;fontColor=#003366" vertex="1" parent="1">
          <mxGeometry x="50" y="280" width="160" height="100" as="geometry" />
        </mxCell>
        <mxCell id="SMvZKlAJo7WMtJHq3p7y-118" value="&lt;p style=&quot;margin: 0px; margin-top: 4px; text-align: center; text-decoration: underline;&quot;&gt;&lt;strong&gt;Zamówienie&lt;br&gt;&lt;/strong&gt;&lt;/p&gt;&lt;hr&gt;&lt;p style=&quot;margin: 0px; margin-left: 8px;&quot;&gt;ID&lt;/p&gt;&lt;div&gt;&amp;nbsp; Użytkownik&lt;/div&gt;&lt;div&gt;&amp;nbsp; Status realicacji&lt;/div&gt;&lt;div&gt;&amp;nbsp; Status dostarczenia&lt;/div&gt;&lt;div&gt;&lt;br&gt;&lt;/div&gt;" style="verticalAlign=top;align=left;overflow=fill;fontSize=12;fontFamily=Helvetica;html=1;strokeColor=#003366;shadow=1;fillColor=#D4E1F5;fontColor=#003366" vertex="1" parent="1">
          <mxGeometry x="250" y="280" width="140" height="100" as="geometry" />
        </mxCell>
        <mxCell id="SMvZKlAJo7WMtJHq3p7y-119" value="&lt;p style=&quot;margin: 0px; margin-top: 4px; text-align: center; text-decoration: underline;&quot;&gt;&lt;strong&gt;Zamawiany produkt&lt;br&gt;&lt;/strong&gt;&lt;/p&gt;&lt;hr&gt;&lt;p style=&quot;margin: 0px; margin-left: 8px;&quot;&gt;ID&lt;/p&gt;&lt;p style=&quot;margin: 0px; margin-left: 8px;&quot;&gt;Zamówienie ID&lt;br&gt;&lt;/p&gt;&lt;div&gt;&amp;nbsp; Produkt ID&lt;br&gt;&lt;/div&gt;&lt;div&gt;&amp;nbsp; Ilość&lt;/div&gt;&lt;div&gt;&amp;nbsp; Cena (po promocji)&lt;/div&gt;&lt;div&gt;&lt;br&gt;&lt;/div&gt;&lt;div&gt;&amp;nbsp; &lt;br&gt;&lt;/div&gt;" style="verticalAlign=top;align=left;overflow=fill;fontSize=12;fontFamily=Helvetica;html=1;strokeColor=#003366;shadow=1;fillColor=#D4E1F5;fontColor=#003366" vertex="1" parent="1">
          <mxGeometry x="460" y="275" width="190" height="110" as="geometry" />
        </mxCell>
        <mxCell id="SMvZKlAJo7WMtJHq3p7y-120" value="&lt;p style=&quot;margin: 0px; margin-top: 4px; text-align: center; text-decoration: underline;&quot;&gt;&lt;strong&gt;Promocja&lt;/strong&gt;&lt;/p&gt;&lt;hr&gt;&lt;p style=&quot;margin: 0px; margin-left: 8px;&quot;&gt;ID&lt;/p&gt;&lt;div&gt;&amp;nbsp; Produkt ID&lt;/div&gt;&lt;div&gt;&amp;nbsp; Nowa Cena&lt;/div&gt;&lt;div&gt;&amp;nbsp; Max liczba produktu&lt;br&gt;&lt;/div&gt;&lt;div&gt;&amp;nbsp; Data ważności&lt;br&gt;&lt;/div&gt;&lt;div&gt;&amp;nbsp; &lt;br&gt;&lt;/div&gt;" style="verticalAlign=top;align=left;overflow=fill;fontSize=12;fontFamily=Helvetica;html=1;strokeColor=#003366;shadow=1;fillColor=#D4E1F5;fontColor=#003366" vertex="1" parent="1">
          <mxGeometry x="350" y="427.5" width="190" height="110" as="geometry" />
        </mxCell>
        <mxCell id="SMvZKlAJo7WMtJHq3p7y-121" value="" style="endArrow=classic;html=1;rounded=0;" edge="1" parent="1" source="SMvZKlAJo7WMtJHq3p7y-120" target="29">
          <mxGeometry width="50" height="50" relative="1" as="geometry">
            <mxPoint x="400" y="650" as="sourcePoint" />
            <mxPoint x="450" y="600" as="targetPoint" />
          </mxGeometry>
        </mxCell>
        <mxCell id="SMvZKlAJo7WMtJHq3p7y-122" value="" style="endArrow=classic;html=1;rounded=0;exitX=0;exitY=0.5;exitDx=0;exitDy=0;entryX=1;entryY=0.5;entryDx=0;entryDy=0;" edge="1" parent="1" source="SMvZKlAJo7WMtJHq3p7y-118" target="SMvZKlAJo7WMtJHq3p7y-116">
          <mxGeometry width="50" height="50" relative="1" as="geometry">
            <mxPoint x="300" y="310" as="sourcePoint" />
            <mxPoint x="350" y="260" as="targetPoint" />
          </mxGeometry>
        </mxCell>
        <mxCell id="SMvZKlAJo7WMtJHq3p7y-123" value="" style="endArrow=classic;html=1;rounded=0;exitX=0;exitY=0.5;exitDx=0;exitDy=0;" edge="1" parent="1" source="SMvZKlAJo7WMtJHq3p7y-119" target="SMvZKlAJo7WMtJHq3p7y-118">
          <mxGeometry width="50" height="50" relative="1" as="geometry">
            <mxPoint x="270" y="545" as="sourcePoint" />
            <mxPoint x="450" y="330" as="targetPoint" />
          </mxGeometry>
        </mxCell>
        <mxCell id="SMvZKlAJo7WMtJHq3p7y-124" value="" style="endArrow=classic;html=1;rounded=0;entryX=0.058;entryY=-0.024;entryDx=0;entryDy=0;entryPerimeter=0;" edge="1" parent="1" source="SMvZKlAJo7WMtJHq3p7y-119" target="29">
          <mxGeometry width="50" height="50" relative="1" as="geometry">
            <mxPoint x="550" y="410" as="sourcePoint" />
            <mxPoint x="600" y="360" as="targetPoint" />
          </mxGeometry>
        </mxCell>
      </root>
    </mxGraphModel>
  </diagram>
</mxfile>
